<svg xmlns="http://www.w3.org/2000/svg" viewBox="0 0 1868 540" width="1868" height="540">
<title>House of Refuge mark</title>
<g transform="translate(0.000000,937.000000) scale(0.100000,-0.100000)" fill="#0B6BB9" fill-rule="evenodd"><path d="M9183 9137 c-8 -11 -134 -117 -262 -217 -54 -42 -170 -139 -181 -150
-3 -3 -61 -50 -130 -105 -69 -55 -127 -102 -130 -105 -3 -4 -61 -49 -130 -101
-69 -53 -153 -118 -188 -145 -35 -27 -74 -54 -86 -61 -12 -7 -34 -23 -47 -35
-14 -13 -56 -44 -95 -70 -86 -59 -152 -105 -167 -119 -18 -15 -257 -182 -377
-262 -58 -39 -107 -73 -110 -77 -3 -3 -79 -54 -170 -113 -91 -58 -170 -110
-175 -114 -34 -26 -156 -103 -164 -103 -5 0 -11 -4 -13 -8 -1 -5 -59 -44 -128
-87 -69 -43 -147 -93 -175 -110 -27 -18 -76 -48 -108 -66 -32 -19 -81 -48
-110 -66 -29 -18 -68 -40 -87 -50 -19 -10 -41 -24 -49 -31 -7 -7 -29 -22 -50
-33 -20 -11 -61 -35 -91 -54 -30 -19 -66 -40 -80 -47 -14 -7 -68 -38 -120 -68
-52 -30 -106 -61 -120 -68 -14 -7 -43 -23 -65 -35 -22 -13 -71 -41 -110 -62
-38 -20 -75 -42 -82 -47 -19 -15 -187 -103 -333 -175 -74 -36 -261 -116 -415
-178 -296 -119 -316 -127 -382 -156 -24 -11 -47 -19 -53 -19 -6 0 -18 -4 -28
-10 -9 -5 -96 -42 -192 -81 -96 -39 -188 -77 -205 -84 -79 -35 -178 -75 -187
-75 -6 0 -31 -10 -57 -23 -25 -13 -58 -27 -74 -31 -15 -3 -51 -17 -80 -30 -28
-13 -110 -48 -182 -76 -71 -29 -171 -70 -222 -91 -51 -22 -95 -39 -98 -39 -3
0 -30 -11 -58 -25 -29 -13 -93 -40 -142 -58 -125 -48 -293 -116 -313 -127 -9
-5 -105 -44 -212 -86 -107 -42 -199 -79 -205 -82 -5 -4 -37 -16 -70 -28 -56
-21 -167 -66 -238 -98 -18 -8 -45 -19 -62 -24 -16 -6 -68 -27 -115 -47 -47
-20 -113 -47 -147 -60 -34 -13 -77 -30 -95 -38 -18 -8 -67 -28 -108 -45 -190
-77 -599 -246 -695 -288 -16 -7 -64 -26 -105 -42 -43 -17 -76 -36 -78 -45 -3
-14 92 -186 176 -322 18 -27 36 -59 41 -70 5 -11 27 -49 50 -85 22 -36 50 -82
61 -102 24 -46 41 -47 116 -13 30 14 60 25 67 25 7 0 35 11 63 24 27 13 94 41
149 62 55 21 176 68 269 106 94 37 176 68 183 68 7 0 13 5 13 10 0 6 5 10 11
10 15 0 338 128 382 151 10 6 54 23 97 39 43 16 87 33 97 39 10 5 43 19 73 31
79 31 88 34 162 69 37 17 71 31 75 31 4 0 25 9 47 19 23 11 91 40 151 66 104
45 166 72 260 115 22 10 112 50 200 90 151 67 217 97 310 140 100 47 178 80
186 80 9 0 84 35 374 175 61 29 153 72 205 95 52 22 102 45 110 51 8 5 22 12
30 15 79 33 757 369 990 491 74 39 178 93 230 120 52 28 149 78 215 113 66 34
125 66 130 70 6 4 55 31 110 60 89 47 145 77 263 141 18 9 38 22 45 27 7 5 55
32 107 60 52 27 168 92 257 143 90 52 180 104 201 115 107 59 359 208 380 225
14 10 28 19 33 19 9 0 149 82 205 121 23 15 63 41 90 56 71 41 131 78 257 161
62 40 136 87 165 105 30 17 66 41 80 53 15 11 49 34 75 50 27 16 59 36 71 44
12 8 38 25 57 37 19 12 48 31 64 43 42 29 184 121 217 139 15 9 60 38 100 66
40 27 80 54 89 60 23 14 296 200 344 233 22 16 65 46 95 67 30 21 69 49 87 62
l32 24 58 -38 c32 -22 83 -56 113 -77 99 -69 145 -101 162 -111 23 -14 234
-155 283 -188 22 -16 90 -62 150 -103 61 -40 119 -80 130 -88 20 -14 174 -116
224 -148 14 -10 39 -25 55 -34 16 -9 47 -29 69 -45 22 -16 43 -29 48 -29 4 0
40 -22 81 -49 111 -73 379 -241 385 -241 6 0 120 -73 140 -90 7 -5 16 -10 21
-10 5 0 35 -17 68 -39 60 -39 284 -172 340 -201 16 -9 43 -25 60 -37 16 -11
69 -42 118 -69 48 -27 104 -58 125 -70 20 -11 62 -35 93 -52 89 -49 103 -57
108 -62 3 -3 37 -21 75 -41 39 -20 131 -70 207 -112 75 -42 151 -83 170 -92
18 -8 110 -55 203 -104 94 -49 213 -110 265 -136 52 -25 106 -53 120 -61 14
-8 41 -22 60 -31 19 -8 112 -52 205 -98 94 -46 220 -107 280 -135 61 -29 142
-67 180 -85 160 -75 292 -138 330 -155 167 -77 204 -94 235 -105 19 -7 76 -32
125 -55 50 -23 104 -48 120 -55 30 -14 226 -96 385 -162 47 -19 99 -41 115
-48 17 -7 82 -34 145 -59 63 -26 129 -53 145 -61 17 -8 55 -23 85 -33 30 -11
127 -48 215 -82 201 -78 272 -105 360 -136 39 -14 84 -31 100 -39 17 -7 59
-23 95 -35 91 -31 207 -72 325 -115 157 -57 594 -205 655 -221 30 -8 74 -23
97 -34 24 -11 49 -20 58 -20 8 0 38 -9 67 -19 29 -11 94 -31 143 -46 86 -26
154 -48 296 -94 36 -12 91 -25 121 -28 l55 -5 49 81 c27 45 56 93 64 109 8 15
18 29 22 32 4 3 12 17 18 30 5 14 21 43 33 65 111 192 199 363 195 382 -3 17
-14 21 -153 52 -22 5 -112 28 -200 51 -88 23 -187 47 -220 54 -33 8 -87 21
-120 31 -33 9 -89 23 -125 31 -36 9 -74 19 -85 24 -11 6 -63 21 -115 34 -52
13 -108 29 -125 35 -16 5 -86 27 -155 47 -69 20 -163 49 -210 64 -47 15 -146
46 -220 70 -74 24 -139 46 -145 50 -5 4 -28 11 -50 15 -22 4 -44 10 -50 15 -5
4 -48 19 -95 34 -47 15 -93 31 -102 37 -10 5 -23 9 -29 9 -6 0 -25 6 -42 14
-18 8 -52 21 -77 29 -78 25 -194 67 -225 81 -16 8 -41 17 -55 21 -25 7 -187
68 -225 85 -11 5 -69 28 -130 50 -118 45 -126 48 -197 79 -26 12 -51 21 -56
21 -6 0 -30 11 -53 25 -24 14 -50 25 -58 25 -7 0 -39 11 -70 24 -31 14 -96 41
-146 62 -49 20 -118 50 -151 65 -34 16 -65 29 -68 29 -4 0 -26 9 -49 19 -23
11 -85 38 -137 61 -108 47 -97 42 -325 145 -93 42 -206 94 -250 115 -44 21
-125 59 -180 85 -112 53 -408 196 -470 227 -186 94 -438 225 -520 269 -55 30
-113 61 -130 69 -16 8 -36 19 -44 25 -7 5 -50 30 -96 55 -129 71 -284 157
-350 195 -33 19 -73 42 -90 51 -62 34 -222 128 -272 160 -29 19 -55 34 -58 34
-3 0 -24 14 -47 30 -22 17 -45 30 -49 30 -5 0 -41 21 -81 47 -40 26 -85 54
-100 63 -50 28 -223 133 -288 175 -173 111 -257 166 -275 179 -11 7 -90 61
-175 118 -143 96 -464 325 -570 405 -25 19 -91 69 -146 111 -253 192 -531 418
-688 559 -59 53 -88 64 -103 40z"/></g>
</svg>
